<svg width="313" height="344" viewBox="0 0 313 344" fill="none" xmlns="http://www.w3.org/2000/svg">
<path d="M151.885 218.772C162.533 218.772 171.165 210.307 171.165 199.865C171.165 189.423 162.533 180.958 151.885 180.958C141.237 180.958 132.605 189.423 132.605 199.865C132.605 210.307 141.237 218.772 151.885 218.772Z" fill="white"/>
<path d="M166.439 253.225C166.317 253.038 166.215 252.838 166.136 252.63L163.647 246.094C163.357 245.331 163.388 244.486 163.733 243.745C164.078 243.004 164.708 242.427 165.486 242.141L221.033 221.801C221.811 221.517 222.673 221.547 223.428 221.885C224.184 222.223 224.772 222.842 225.064 223.604L227.552 230.14C227.696 230.518 227.763 230.92 227.748 231.324C227.734 231.727 227.638 232.123 227.467 232.49C227.297 232.857 227.054 233.188 226.753 233.463C226.452 233.738 226.098 233.952 225.713 234.093L170.167 254.433C169.498 254.678 168.764 254.691 168.086 254.472C167.409 254.252 166.828 253.812 166.439 253.225Z" fill="#FFE3DE"/>
<path d="M220.856 220.112L198.268 228.945C197.556 229.155 196.954 229.626 196.587 230.26C196.219 230.893 196.115 231.641 196.295 232.348L198.916 242.641C199.02 243.048 199.214 243.427 199.485 243.751C199.756 244.075 200.096 244.336 200.482 244.516C200.868 244.696 201.29 244.789 201.718 244.79C202.145 244.79 202.567 244.698 202.954 244.52L225.604 234.065C226.322 233.801 226.903 233.269 227.222 232.585C227.54 231.901 227.569 231.122 227.303 230.417L224.58 221.779C224.311 221.074 223.768 220.503 223.069 220.19C222.371 219.878 221.575 219.85 220.856 220.112V220.112Z" fill="#2F2E41"/>
<path d="M262.193 284.236C261.484 284.316 260.768 284.156 260.164 283.783C259.56 283.41 259.104 282.846 258.871 282.184L239.536 227.218C239.402 226.836 239.346 226.433 239.371 226.03C239.395 225.627 239.501 225.233 239.681 224.871C239.861 224.508 240.112 224.184 240.42 223.916C240.728 223.649 241.087 223.443 241.476 223.312L248.201 221.036C248.987 220.771 249.848 220.823 250.594 221.179C251.341 221.536 251.913 222.169 252.185 222.939L271.52 277.906C271.79 278.676 271.737 279.52 271.373 280.252C271.01 280.985 270.364 281.546 269.58 281.812L262.854 284.087C262.64 284.16 262.418 284.21 262.193 284.236V284.236Z" fill="#FFE3DE"/>
<path d="M253.626 221.998L261.046 244.708C261.334 245.38 261.347 246.135 261.082 246.816C260.817 247.497 260.295 248.052 259.624 248.366L249.859 252.93C249.473 253.111 249.051 253.205 248.624 253.206C248.197 253.207 247.774 253.116 247.387 252.938C247 252.76 246.658 252.501 246.386 252.178C246.114 251.855 245.918 251.477 245.812 251.071L239.628 227.282C239.379 226.571 239.428 225.793 239.763 225.117C240.098 224.441 240.693 223.923 241.417 223.676L249.945 220.241C250.671 219.996 251.466 220.043 252.156 220.373C252.846 220.702 253.375 221.287 253.626 221.998V221.998Z" fill="#2F2E41"/>
<path d="M231.157 343.161H224.043C223.213 343.16 222.416 342.836 221.829 342.26C221.242 341.684 220.911 340.903 220.91 340.089V281.943C220.911 281.129 221.242 280.348 221.829 279.772C222.416 279.196 223.213 278.872 224.043 278.871H231.157C231.988 278.872 232.784 279.196 233.372 279.772C233.959 280.348 234.289 281.129 234.29 281.943V340.089C234.289 340.903 233.959 341.684 233.372 342.26C232.784 342.836 231.988 343.16 231.157 343.161Z" fill="#2F2E41"/>
<path d="M245.228 343.161H238.114C237.283 343.16 236.487 342.836 235.9 342.26C235.312 341.684 234.982 340.903 234.981 340.089V281.943C234.982 281.129 235.312 280.348 235.9 279.772C236.487 279.196 237.283 278.872 238.114 278.871H245.228C246.059 278.872 246.855 279.196 247.442 279.772C248.03 280.348 248.36 281.129 248.361 281.943V340.089C248.36 340.903 248.03 341.684 247.442 342.26C246.855 342.836 246.059 343.16 245.228 343.161Z" fill="#2F2E41"/>
<path d="M251.091 288.779H218.767C217.872 288.778 217.015 288.429 216.382 287.809C215.75 287.189 215.394 286.348 215.393 285.47V233.975C215.393 228.894 217.451 224.022 221.115 220.429C224.778 216.836 229.748 214.817 234.929 214.817C240.11 214.817 245.079 216.836 248.743 220.429C252.407 224.022 254.465 228.894 254.465 233.975V285.47C254.464 286.348 254.108 287.189 253.476 287.809C252.843 288.429 251.985 288.778 251.091 288.779Z" fill="#CCCCCC"/>
<path d="M255.956 301.375H239.568V210.549L239.873 210.631C244.488 211.873 248.561 214.566 251.466 218.296C254.371 222.026 255.948 226.587 255.956 231.281V301.375Z" fill="#2F2E41"/>
<path d="M228.957 301.375H212.569V231.281C212.577 226.587 214.155 222.026 217.06 218.296C219.965 214.566 224.037 211.873 228.653 210.631L228.957 210.549V301.375Z" fill="#2F2E41"/>
<path d="M234.95 214.704C249.197 214.704 260.747 203.378 260.747 189.407C260.747 175.436 249.197 164.11 234.95 164.11C220.704 164.11 209.154 175.436 209.154 189.407C209.154 203.378 220.704 214.704 234.95 214.704Z" fill="#FFE3DE"/>
<path d="M262.797 185.686C262.797 185.686 264.243 146.454 245.445 159.216C245.445 159.216 234.6 123.529 208.09 176.941L200.378 184.504C200.378 184.504 235.082 179.777 267.376 194.43L262.797 185.686Z" fill="#2F2E41"/>
<path d="M177.169 255.636C176.473 255.953 175.678 255.985 174.958 255.727C174.237 255.468 173.651 254.94 173.329 254.257L156.694 219.098C156.372 218.416 156.339 217.636 156.602 216.93C156.866 216.223 157.405 215.649 158.101 215.332C158.796 215.016 159.592 214.983 160.312 215.242C161.032 215.5 161.618 216.029 161.941 216.711L178.575 251.87C178.898 252.552 178.931 253.333 178.668 254.039C178.404 254.745 177.865 255.32 177.169 255.636Z" fill="#3F3D56"/>
<path d="M160.535 220.477C156.384 222.366 151.755 223.005 147.234 222.314C142.713 221.622 138.502 219.632 135.134 216.594C131.767 213.556 129.393 209.607 128.314 205.246C127.235 200.885 127.499 196.309 129.072 192.095C130.646 187.881 133.458 184.22 137.153 181.573C140.849 178.927 145.261 177.415 149.833 177.228C154.405 177.041 158.931 178.187 162.838 180.522C166.746 182.858 169.859 186.277 171.785 190.347C174.36 195.807 174.622 202.045 172.513 207.694C170.404 213.342 166.096 217.939 160.535 220.477V220.477ZM143.495 184.46C140.382 185.877 137.767 188.167 135.981 191.041C134.195 193.914 133.318 197.243 133.461 200.606C133.604 203.968 134.76 207.214 136.784 209.931C138.808 212.649 141.609 214.718 144.831 215.875C148.054 217.032 151.554 217.226 154.889 216.432C158.225 215.639 161.245 213.893 163.568 211.416C165.892 208.939 167.414 205.843 167.943 202.517C168.471 199.192 167.982 195.788 166.538 192.735C164.597 188.644 161.081 185.476 156.761 183.925C152.441 182.374 147.67 182.566 143.495 184.46V184.46Z" fill="#3F3D56"/>
</svg>
